<svg width="530" height="616" viewBox="0 0 530 616" fill="none" xmlns="http://www.w3.org/2000/svg">
<path d="M251.406 92.639C233.173 101.586 211.858 112.502 204.171 116.686C130.67 156.441 94.0056 194.492 92.0451 232.778C91.3672 249.196 95.4938 262.999 110.027 289.724C128.905 325.11 131.228 335.016 123.356 350.861C118.175 361.291 112.913 367.179 99.3778 377.959C64.0866 406.189 -8.77434 439.011 -86.4189 461.704C-93.584 463.896 -99.6245 466.646 -100.322 468.05C-101.817 471.059 -100.687 475.371 -97.8755 476.768C-92.2523 479.561 -6.75008 449.519 32.862 430.938C69.5036 413.631 97.9906 396.275 115.727 380.33C130.072 367.451 138.793 351.778 139.786 338.018C140.616 323.176 137.958 315.354 122.272 285.305C114.484 269.933 106.908 253.666 105.79 248.859C100.225 223.839 110.823 201.096 140.396 174.026C161.338 154.922 201.555 130.89 256.916 104.128C287.33 89.4799 290.124 87.6174 290.044 83.0761C289.196 74.903 285.189 75.913 251.406 92.639Z" fill="#F4F4F4"/>
<path d="M369.475 128.289C298.966 173.782 280.396 192.814 279.259 220.507C278.28 245.527 294.044 268.363 336.425 304.422C385.594 346.103 405.341 396.674 391.193 444.911C376.623 494.938 322.485 549.814 233.42 605.844C220.518 613.938 209.526 621.481 209.028 622.484C207.733 625.091 209.149 629.296 211.961 630.693C214.772 632.09 227.65 624.984 255.113 606.868C308.302 571.776 348.305 536.885 374.535 502.903C388.136 485.403 402.608 455.333 405.371 438.951C412.71 397.835 402.772 361.389 374.44 324.808C364.783 312.258 354.955 302.874 326.713 278.341C294.846 250.756 284.688 227.455 295.249 206.195C302.822 190.952 316.293 178.889 356.769 151.984C370.743 142.672 382.707 134.112 383.305 132.909C383.903 131.706 384.05 129.528 383.611 128.06C382.031 122.773 377.947 122.995 369.475 128.289Z" fill="#F4F4F4"/>
<path d="M209.03 155.359C184.573 170.717 168.037 188.008 164.683 201.346C161.552 213.294 168.29 228.895 175.356 226.904C180.224 225.572 180.981 221.696 178.036 213.982C175.068 207.256 175.379 206.16 179.065 198.739C183.637 190.007 196.821 178.052 215.412 166.032C226.105 159.091 227.764 157.164 226.534 153.052C224.579 147.58 220.584 148.096 209.03 155.359Z" fill="#F4F4F4"/>
<path d="M333.827 361.397C328.66 363.331 328.653 367.578 334.473 377.972C345.113 397.011 346.708 413.558 339.65 431.058C334.509 443.758 324.758 454.918 307.368 468.284C292.198 480.003 290.316 483.32 296.092 487.689C299.354 490.06 305.506 486.614 320.699 473.907C336.28 460.892 348.92 443.915 353.036 430.456C359.093 411.209 356.807 391.818 346.08 372.485C340.634 362.278 338.034 359.986 333.827 361.397Z" fill="#F4F4F4"/>
<path d="M188.153 377.55C187.093 378.274 182.146 386.819 177.363 396.446C170.177 411.382 168.87 414.483 170.235 416.911C172.6 421.087 177.469 419.755 182.169 413.588C187.741 406.604 196.393 385.895 195.539 381.97C195.06 378.231 191.036 375.982 188.153 377.55Z" fill="#F4F4F4"/>
<path d="M148.889 433.064C147.84 433.293 141.202 437.248 134.253 442.298C110.71 459.109 89.5825 470.119 52.7012 485.556C40.9191 490.455 30.748 495.405 30.1502 496.609C28.7552 499.416 30.1718 503.621 32.9834 505.018C35.4201 506.228 60.2964 497.081 82.9352 486.322C112.189 472.597 150.408 448.823 153.596 442.405C156.287 436.99 153.658 431.932 148.889 433.064Z" fill="#F4F4F4"/>
</svg>
